<?xml version="1.0" encoding="UTF-8" standalone="no"?>
<!DOCTYPE svg PUBLIC "-//W3C//DTD SVG 1.1//EN" "http://www.w3.org/Graphics/SVG/1.1/DTD/svg11.dtd">
<svg width="100%" height="100%" viewBox="0 0 736 450" version="1.1" xmlns="http://www.w3.org/2000/svg" xmlns:xlink="http://www.w3.org/1999/xlink" xml:space="preserve" xmlns:serif="http://www.serif.com/" style="fill-rule:evenodd;clip-rule:evenodd;stroke-linejoin:round;stroke-miterlimit:2;">
    <g id="Artboard1" transform="matrix(1.002682,0,0,0.90008,-94.292613,-181.719001)">
        <rect x="94.04" y="201.892" width="733.198" height="499.034" style="fill:none;"/>
        <g transform="matrix(1.034725,0,0,1.111012,-40.660298,-94.498859)">
            <path d="M706.768,457.819L706.768,608.156C706.768,619.201 698.137,628.156 687.491,628.156C687.286,628.156 687.081,628.156 686.876,628.156C676.23,628.156 667.599,619.202 667.599,608.156C667.599,569.01 667.599,482.685 667.599,443.539C667.599,432.493 676.23,423.539 686.876,423.539L698.009,423.539C698.009,423.539 707.984,423.325 765.285,423.539C786.185,423.617 820.95,436.968 822.825,480C824.493,518.289 790.237,535.591 778.027,541.438C778.027,541.438 798.959,571.726 816.082,596.501C820.294,602.595 820.866,610.621 817.565,617.291C814.263,623.962 807.643,628.156 800.416,628.156C799.696,628.156 798.995,628.156 798.317,628.156C791.83,628.156 785.779,624.772 782.213,619.15C759.685,583.636 746.744,562.484 737.802,548.849C734.118,543.358 733.326,536.319 735.692,530.095C738.058,523.871 743.268,519.288 749.573,517.884C768.016,513.807 783.293,504.651 783.218,485.133C783.156,469.054 772.855,458.297 758.206,458.205C730.346,458.029 714.985,457.9 706.768,457.819Z" style="fill:rgb(101,153,211);"/>
        </g>
        <g transform="matrix(1.022259,0,0,1.111012,-30.396638,-94.498859)">
            <path d="M609.408,423.539C620.184,423.539 628.92,432.493 628.92,443.539C628.92,482.685 628.92,569.01 628.92,608.156C628.92,619.202 620.184,628.156 609.408,628.156C609.371,628.156 609.333,628.156 609.295,628.156C604.112,628.156 599.141,626.045 595.476,622.289C591.811,618.532 589.752,613.437 589.752,608.124C589.752,568.963 589.752,482.674 589.752,443.539C589.752,432.493 598.488,423.539 609.264,423.539C609.312,423.539 609.36,423.539 609.408,423.539Z" style="fill:rgb(101,153,211);"/>
        </g>
        <g transform="matrix(0.997326,0,0,1.111012,-14.227378,-94.498859)">
            <path d="M549.929,484.707C575.579,592.768 508.904,646.04 420.574,624.259C408.06,613.256 402.146,595.052 401.121,571.516C466.902,621.187 526.799,584.185 512.676,497.944C526.342,496.132 538.883,491.478 549.929,484.707Z" style="fill:rgb(101,153,211);"/>
        </g>
        <g transform="matrix(0.997326,0,0,1.111012,-14.227378,-94.498859)">
            <path d="M336.606,671.165C302.221,670.998 295.07,709.578 293.363,699.132C291.305,686.531 287.533,644.531 347.53,607.372C304.745,508.354 354.05,397.103 401.121,359.212C437.545,329.892 419.647,308.234 401.121,302.798C392.623,300.304 385.996,302.38 385.48,296.722C384.15,282.12 444.061,262.231 492.943,303.326C559.809,281.374 663.288,293.623 675.555,357.946C691.793,369.721 720.634,377.67 716.204,390.965C708.656,413.618 671.323,396.365 616.484,394.692C493.016,390.926 354.65,486.996 379.47,606.611C401.151,619.403 445.901,642.359 439.298,698.885C438.068,709.409 426.137,668.437 394.203,670.827C380.716,671.837 370.429,665.619 365.156,656.333C357.619,670.828 351.001,671.235 336.606,671.165Z" style="fill:rgb(0,67,128);"/>
        </g>
        <g transform="matrix(0.997326,0,0,1.111012,-14.227378,-94.498859)">
            <path d="M485.178,480C543.37,474.869 582.486,418.558 575.265,364.466L504.553,380.917C515.246,424.903 512.089,460.039 485.178,480Z" style="fill:rgb(0,67,128);"/>
        </g>
        <g transform="matrix(0.997326,0,0,1.111012,-14.227378,-94.498859)">
            <path d="M123.904,443.665C123.904,438.271 126.082,433.106 129.945,429.342C133.808,425.577 139.027,423.532 144.419,423.671C158.901,423.763 183.604,423.914 225.742,424.166C267.713,424.417 306.649,454.049 307.526,522.244C308.493,597.411 264.273,627.192 216.968,627.529C179.706,627.794 157.34,627.947 143.926,628.036C138.618,628.042 133.525,625.937 129.769,622.186C126.014,618.434 123.904,613.344 123.904,608.036C123.904,568.876 123.904,482.83 123.904,443.665ZM164.012,458.947L164.012,593.247C164.012,593.247 163.912,593.757 210.335,593.157C241.382,592.755 268.559,573.071 268.77,524.304C268.963,479.626 243.641,459.893 216.094,459.68C163.887,459.275 164.012,458.947 164.012,458.947Z" style="fill:rgb(0,67,128);"/>
        </g>
    </g>
</svg>
